{"title":"2012 (2009) BluRay 720p  [Dual Audio] [Hindi+English] [ TaRa ]","uid":15215619,"size":1417337721,"categoryP":"video","categoryS":"hd___movies","magnet":"?xt=urn:btih:a15bfefb5502b5fd8b1f40c5bbef8ab96bed3f8a&amp;dn=2012+%282009%29+BluRay+720p++%5BDual+Audio%5D+%5BHindi%2BEnglish%5D+%5B+TaRa+%5D&amp;tr=udp%3A%2F%2Ftracker.leechers-paradise.org%3A6969&amp;tr=udp%3A%2F%2Fzer0day.ch%3A1337&amp;tr=udp%3A%2F%2Fopen.demonii.com%3A1337&amp;tr=udp%3A%2F%2Ftracker.coppersurfer.tk%3A6969&amp;tr=udp%3A%2F%2Fexodus.desync.com%3A6969","seeders":0,"leechers":1,"uploader":"MdTaRa","files":1,"time":1467690787,"description":"==================================================================\r\nGeneral\r\nComplete name               : 2012 (2009) BluRay 720p  [Dual Audio] [Hindi+English]    [ TaRa ] .mkv\r\nFormat                      : Matroska\r\nFormat version              : Version 4 / Version 2\r\nFile size                   : 1.32 GiB\r\nDuration                    : 2h 37mn\r\nOverall bit rate            : 1 197 Kbps\r\n===================================================================\r\nVideo\r\nID                          : 1\r\nFormat                      : AVC\r\nFormat/Info                 : Advanced Video Codec\r\nFormat profile              :   \r\nFormat settings, CABAC      : Yes\r\nFormat settings, ReFrames   : 4 frames\r\nCodec ID                    : V_MPEG4/ISO/AVC\r\nDuration                    : 2h 37mn\r\nBit rate                    : 1 000 Kbps\r\nWidth                       : 1 280 pixels\r\nHeight                      : 544 pixels\r\nDisplay aspect ratio        : 2.35:1\r\nFrame rate mode             : Constant\r\nFrame rate                  : 23.976 (24000/1001) fps\r\nColor space                 : YUV\r\nChroma subsampling          : 4:2:0\r\nBit depth                   : 8 bits\r\nScan type                   : Progressive\r\nBits/(Pixel*Frame)          : 0.060\r\nStream size                 : 1.10 GiB (83%)\r\nTitle                       : .....::::: TaRa :::::....\r\nLanguage                    : Hindi\r\nDefault                     : Yes\r\nForced                      : No\r\n===================================================================\r\nAudio #1\r\nID                          : 2\r\nFormat                      : AAC\r\nFormat/Info                 : Advanced Audio Codec\r\nFormat profile              : LC\r\nCodec ID                    : A_AAC\r\nDuration                    : 2h 37mn\r\nBit rate                    : 96.0 Kbps\r\nChannel(s)                  : 2 channels\r\nChannel positions           : Front: L R\r\nSampling rate               : 48.0 KHz\r\nFrame rate                  : 46.875 fps (1024 spf)\r\nCompression mode            : Lossy\r\nDelay relative to video     : -83ms\r\nStream size                 : 109 MiB (8%)\r\nTitle                       : .....::::: TaRa :::::.... [ Hindi ]\r\nLanguage                    : Hindi\r\nDefault                     : Yes\r\nForced                      : No\r\n===================================================================\r\nAudio #2\r\nID                          : 3\r\nFormat                      : AAC\r\nFormat/Info                 : Advanced Audio Codec\r\nFormat profile              : LC\r\nCodec ID                    : A_AAC\r\nDuration                    : 2h 37mn\r\nBit rate                    : 105 Kbps\r\nChannel(s)                  : 2 channels\r\nChannel positions           : Front: L R\r\nSampling rate               : 48.0 KHz\r\nFrame rate                  : 46.875 fps (1024 spf)\r\nCompression mode            : Lossy\r\nDelay relative to video     : -83ms\r\nStream size                 : 118 MiB (9%)\r\nTitle                       : .....::::: TaRa :::::.... [ English ]\r\nLanguage                    : English\r\nDefault                     : No\r\nForced                      : No\r\n=================================================================== \nhttps://picoolio.net/image/IJ1p","torrent":{"xt":"urn:btih:a15bfefb5502b5fd8b1f40c5bbef8ab96bed3f8a","amp;dn":"2012+%282009%29+BluRay+720p++%5BDual+Audio%5D+%5BHindi%2BEnglish%5D+%5B+TaRa+%5D","amp;tr":["udp%3A%2F%2Ftracker.leechers-paradise.org%3A6969","udp%3A%2F%2Fzer0day.ch%3A1337","udp%3A%2F%2Fopen.demonii.com%3A1337","udp%3A%2F%2Ftracker.coppersurfer.tk%3A6969","udp%3A%2F%2Fexodus.desync.com%3A6969"],"infoHash":"a15bfefb5502b5fd8b1f40c5bbef8ab96bed3f8a","infoHashBuffer":{"type":"Buffer","data":[161,91,254,251,85,2,181,253,139,31,64,197,187,239,138,185,107,237,63,138]},"announce":[],"urlList":[]}}